<?xml version="1.0" encoding="utf-8"?>
<!-- Generator: Adobe Illustrator 23.0.1, SVG Export Plug-In . SVG Version: 6.00 Build 0)  -->
<svg version="1.1" id="logo" xmlns="http://www.w3.org/2000/svg" xmlns:xlink="http://www.w3.org/1999/xlink" x="0px" y="0px"
	 viewBox="0 0 863.2 861.6" style="enable-background:new 0 0 863.2 861.6;" xml:space="preserve">
<style type="text/css">
	.st0{fill:#1A4686;}
	.st1{fill:#FFFFFF;}
	.st2{fill:#F9FCFD;}
</style>
<circle id="circle_2_" class="st0" cx="431.6" cy="430" r="417.1"/>
<path id="a_x2B_" class="st1" d="M739.3,479c-10.2,12.2-20.3,21.5-32.1,27.2c-18.9,9.1-44.7,4.1-72.1-52.7l-98.7-204.7
	c-13.5-28-29-52.3-48.5-71.3c-16.3-0.5-30.4-0.6-34.5-0.2c-3.3,0.3-3.9,1.3-4.3,4.5c-3.9,34.4-2.9,23.9-4.7,52.9
	c0.3,8.2-3.3,10.8-10,12.3c-7.6,1.7-10.8,1-11.5-7.3c-1-11.5-3.5-38.4-3.4-51.2c0.1-10.8,0.2-10.8-9.7-9.5
	c-23.6,5-16.3,3.3-39.6,11.8c-5.4,2-8.4,1-9.6-5.6c-1.3-7.5-3-15-5-22.3c-1.4-5,0.4-6.3,4.6-7.2c29.1-4.6,26.7-3.7,55.9-6.6
	c5.5-0.1,5.8,0.1,7.1-6.2c0.1-1,0.2-2.1,0.3-3.1c-7.1-2.1-14.6-3.8-22.4-5.1c-45.7-7.1-91.1,1.6-138.4,24.5
	c-59.5,46-112.7,114-148.9,175.2C95.7,366.5,89,388.7,99.2,410c16,33.1,68.7,42.7,99.5,27.9c23.7-11.4,38.6-28.8,31.5-64.8
	c-7.7-40.1-14.3-66-9.3-91.8c3.8-19.3,15.8-36.8,35.9-46.5c50.9-24.5,89.9-1.1,119.6,60.5l25.1,52.1
	c-15.8,36.8-95.6,110.3-152.8,170c-50.7,55.1-65.4,97.2-35.2,159.9c35.4,73.4,132.8,124.1,234.5,75c22.5-10.8,61.6-77.9,92.3-129.1
	c12.2,10.2,28.5,22.7,51.9,28.9c22.2,6.8,53.4,4.9,85.3-10.5L771.7,513L739.3,479z M472.8,628c-26,12.6-83.6,11.1-115.6-55.1
	c-19.4-40.2-8.4-71.8,19.2-108.4c17.4-24.4,33-46.5,48.6-68.6c26.8,55.6,63.9,132.5,90.7,188.1C505.3,610.9,489.3,620,472.8,628z"/>
<path id="plus_2_" class="st2" d="M426.5,149.4c2.6-22.2,6-44.3,12.3-65.8c0.9-3,1.9-3.4,4.5-2.5c4.6,1.5,9.2,2.8,13.8,4.2
	c3.2,1,4,2.9,2.7,6c-8,19.4-11.9,39.9-15.5,60.5c-0.3,2-0.1,2.8,2.3,2.9c19.3,0.5,38.4,3,57.6,5.2c2.3,0.3,3,1.3,3.6,3.4
	c0.4,1.2,0.5,2.6,0.8,3.9c0.9,4.2-0.7,6.2-4.9,5.6c-13.5-1.9-53.6-2.7-59.6-2.3c-2.1,0.2-2.6,0.8-2.8,2.8c-2,19.8-2.9,39.7-2.1,59.6
	c0.2,5-1.2,6.5-5.6,7.4c-4.9,1-6.1,0.6-6.6-4.4c-0.7-7-2.3-49.9-2.2-57.6c0.1-6.5,0.2-6.5-6.3-5.8c-16,1.1-31.6,3.8-46.8,8.9
	c-3.5,1.2-5.5,0.6-6.2-3.4c-0.9-4.6-2-9.1-3.3-13.6c-0.9-3,0.2-3.8,3-4.4c18.6-4,37.5-5.5,56.4-5.8
	C425.5,154,425.7,153.2,426.5,149.4z"/>
</svg>
